<svg id="Layer_1" data-name="Layer 1" xmlns="http://www.w3.org/2000/svg" viewBox="0 0 1090.8 1080.53"><defs><style>.cls-1{fill:#9272b3;}.cls-1,.cls-2,.cls-3,.cls-4,.cls-5,.cls-6{fill-rule:evenodd;}.cls-2{fill:#78b0df;}.cls-3{fill:#b5d446;}.cls-4{fill:#e39941;}.cls-5{fill:#d25050;}.cls-6{fill:#1c2a39;opacity:0.2;}.cls-7{fill:#454545;}</style></defs><path class="cls-1" d="M485.5,737.34C325.58,719.29,183.92,629.52,98.3,495.68a9.3,9.3,0,0,0-17.11,4.23q-1.69,19.86-1.69,40.37A465.9,465.9,0,0,0,368.62,971.53a30,30,0,0,0,23.54,0,465.16,465.16,0,0,0,108.91-63.18,30.07,30.07,0,0,0,12-24.49V768.18a30.92,30.92,0,0,0-27.55-30.84"/><path class="cls-2" d="M274.51,589.45a465.84,465.84,0,0,0,270.86,86.61h1.3a31.08,31.08,0,0,1,31,31v98.68a9.3,9.3,0,0,0,16.88,5.4A465.94,465.94,0,0,0,681.19,540.3V539a31.1,31.1,0,0,1,31-31h98.67a9.29,9.29,0,0,0,5.4-16.87,465.85,465.85,0,0,0-270.86-86.63h-1.3a31.08,31.08,0,0,1-31-31V274.78a9.31,9.31,0,0,0-16.89-5.4,465.94,465.94,0,0,0-86.61,270.87v1.28a31.08,31.08,0,0,1-31,31H279.91a9.31,9.31,0,0,0-5.4,16.89"/><path class="cls-3" d="M317.5,507.91a30.9,30.9,0,0,0,30.82-27.54C366.37,320.44,456.15,178.77,590,93.17a9.3,9.3,0,0,0-4.23-17.11q-19.86-1.68-40.37-1.7A465.93,465.93,0,0,0,114.14,363.48a30,30,0,0,0,0,23.56,465.38,465.38,0,0,0,63.16,108.9,30.1,30.1,0,0,0,24.49,12Z"/><path class="cls-4" d="M605.31,343.19c159.48,18,301.13,107,387.19,241.66a9.31,9.31,0,0,0,17.12-4.22q1.68-19.87,1.68-40.36A465.89,465.89,0,0,0,722.19,109a30,30,0,0,0-23.55,0,464.39,464.39,0,0,0-108.91,63.16,30.07,30.07,0,0,0-12,24.49V312.35a30.92,30.92,0,0,0,27.56,30.84"/><path class="cls-5" d="M889,572.62H773.3a30.92,30.92,0,0,0-30.82,27.54c-18.05,159.92-107.83,301.6-241.67,387.22a9.29,9.29,0,0,0,4.23,17.09q19.86,1.68,40.37,1.7A465.88,465.88,0,0,0,976.66,717.05a30,30,0,0,0,0-23.56,465.75,465.75,0,0,0-63.15-108.9,30.18,30.18,0,0,0-24.5-12"/><path class="cls-6" d="M589.73,172.18a30.07,30.07,0,0,0-12,24.49v42.75a30.1,30.1,0,0,1,12-24.49,464.74,464.74,0,0,1,108.91-63.16,29.83,29.83,0,0,1,23.55,0,465.87,465.87,0,0,1,288.64,410q.48-10.69.47-21.54A465.89,465.89,0,0,0,722.19,109a30,30,0,0,0-23.55,0,464.39,464.39,0,0,0-108.91,63.16M513.11,317.53V274.78a9.31,9.31,0,0,0-16.89-5.4,465.94,465.94,0,0,0-86.61,270.87v1.28a31.08,31.08,0,0,1-31,31H279.91a9.31,9.31,0,0,0-5.4,16.89,468.31,468.31,0,0,0,40.55,25.86h63.53a31.09,31.09,0,0,0,31-31V583a465.89,465.89,0,0,1,86.61-270.86,9.31,9.31,0,0,1,16.89,5.4ZM816.29,491.1a465.85,465.85,0,0,0-270.86-86.63h-1.3a31.08,31.08,0,0,1-31-31V416.2a31.09,31.09,0,0,0,31,31h1.3A466,466,0,0,1,775.75,508h35.14a9.29,9.29,0,0,0,5.4-16.87ZM742.48,600.16c-18.05,159.92-107.83,301.6-241.67,387.22a9.29,9.29,0,0,0,4.23,17.09q15,1.29,30.29,1.61A530.25,530.25,0,0,0,742.48,642.93a30.9,30.9,0,0,1,30.82-27.55H889a30.1,30.1,0,0,1,24.5,12,466.17,466.17,0,0,1,59.1,99.3q2.08-4.77,4.06-9.61a30,30,0,0,0,0-23.56,465.75,465.75,0,0,0-63.15-108.9,30.18,30.18,0,0,0-24.5-12H773.3A30.92,30.92,0,0,0,742.48,600.16ZM513.05,810.92V768.18a30.92,30.92,0,0,0-27.55-30.84C325.58,719.29,183.92,629.52,98.3,495.68a9.3,9.3,0,0,0-17.11,4.23q-1.69,19.86-1.69,40.37,0,10.65.47,21.2.44-9.47,1.22-18.81a9.3,9.3,0,0,1,17.11-4.23C183.92,672.28,325.58,762.05,485.5,780.1A30.89,30.89,0,0,1,513.05,810.92ZM118.21,396.61A465.92,465.92,0,0,1,545.39,117.12c3.37,0,6.73,0,10.08.1q16.71-12.66,34.52-24a9.3,9.3,0,0,0-4.23-17.11q-19.86-1.68-40.37-1.7A465.93,465.93,0,0,0,114.14,363.48a30,30,0,0,0,0,23.56C115.46,390.24,116.82,393.44,118.21,396.61Z"/><path class="cls-7" d="M348.32,480.37C366.37,320.44,456.15,178.77,590,93.17a9.3,9.3,0,0,0-4.23-17.11q-19.86-1.68-40.37-1.7A465.93,465.93,0,0,0,114.14,363.48a30,30,0,0,0,0,23.56,465.38,465.38,0,0,0,63.16,108.9,30.1,30.1,0,0,0,24.49,12H317.5a30.9,30.9,0,0,0,30.82-27.54m197.09,590.45c-288.26,0-530.56-233.5-530.56-530.54C14.85,252,248.36,9.71,545.39,9.71,833.65,9.71,1076,243.22,1076,540.27,1076,828.51,842.45,1070.82,545.41,1070.82Zm464.21-490.19q1.68-19.87,1.68-40.36A465.89,465.89,0,0,0,722.19,109a30,30,0,0,0-23.55,0,464.39,464.39,0,0,0-108.91,63.16,30.07,30.07,0,0,0-12,24.49V312.35a30.92,30.92,0,0,0,27.56,30.84c159.48,18,301.13,107,387.19,241.66a9.31,9.31,0,0,0,17.12-4.22ZM681.19,540.3V539a31.1,31.1,0,0,1,31-31h98.67a9.29,9.29,0,0,0,5.4-16.87,465.85,465.85,0,0,0-270.86-86.63h-1.3a31.08,31.08,0,0,1-31-31V274.78a9.31,9.31,0,0,0-16.89-5.4,465.94,465.94,0,0,0-86.61,270.87v1.28a31.08,31.08,0,0,1-31,31H279.91a9.31,9.31,0,0,0-5.4,16.89,465.84,465.84,0,0,0,270.86,86.61h1.3a31.08,31.08,0,0,1,31,31v98.68a9.3,9.3,0,0,0,16.88,5.4A465.94,465.94,0,0,0,681.19,540.3Zm61.29,59.86c-18.05,159.92-107.83,301.6-241.67,387.22a9.29,9.29,0,0,0,4.23,17.09q19.86,1.68,40.37,1.7A465.88,465.88,0,0,0,976.66,717.05a30,30,0,0,0,0-23.56,465.75,465.75,0,0,0-63.15-108.9,30.18,30.18,0,0,0-24.5-12H773.3A30.92,30.92,0,0,0,742.48,600.16Zm-257,137.18C325.58,719.29,183.92,629.52,98.3,495.68a9.3,9.3,0,0,0-17.11,4.23q-1.69,19.86-1.69,40.37A465.9,465.9,0,0,0,368.62,971.53a30,30,0,0,0,23.54,0,465.16,465.16,0,0,0,108.91-63.18,30.07,30.07,0,0,0,12-24.49V768.18A30.92,30.92,0,0,0,485.5,737.34Z"/></svg>