<svg id="Layer_1" data-name="Layer 1" xmlns="http://www.w3.org/2000/svg" viewBox="0 0 89.07 41.9"><defs><style>.cls-1{fill:#454545;}.cls-2{fill:#d25050;}.cls-3{fill:#e39941;}.cls-4{fill:#b5d447;}.cls-5{fill:#9272b3;}.cls-6{fill:#78afdf;}</style></defs><title>logo-tlm-dark</title><path class="cls-1" d="M10.88,38.09V41.9H7.62A7.37,7.37,0,0,1,0,34.61V3.81H4.35V14.69h6.53V18.5H4.35V34.61a3.4,3.4,0,0,0,3.27,3.48Z"/><path class="cls-1" d="M21.22,41.9V3.81h4.36V41.9Z"/><path class="cls-1" d="M41.85,41.9H37.49V14.69h2.72l1.64,2.45a8.35,8.35,0,0,1,6-2.45h2.45A7.9,7.9,0,0,1,56.54,18a9.59,9.59,0,0,1,7.23-3.27h2.29A7.32,7.32,0,0,1,73.41,22V41.9H69.05V21.55a3,3,0,0,0-3-3.05H63.77a6.18,6.18,0,0,0-6.14,6.15V41.9H53.27V21.55a3,3,0,0,0-3-3.05H47.83a6,6,0,0,0-6,6.15Z"/><path class="cls-2" d="M80.06,11.23l5.53-5.29a.75.75,0,0,0,0-1.05l-1-1a.74.74,0,0,0-1,0L78.06,9.13a6.51,6.51,0,0,1,1.12.93,6.64,6.64,0,0,1,.88,1.17"/><path class="cls-3" d="M89,13.4a.73.73,0,0,0-.78-.69l-7.38.48a6.32,6.32,0,0,1-.1,2.9l7.66-.49a.74.74,0,0,0,.69-.79Z"/><path class="cls-4" d="M78.05,19.76a.91.91,0,0,0,.11.16l5.36,5.6a.74.74,0,0,0,1,0l1-1a.75.75,0,0,0,0-1.05l-5.35-5.6a.76.76,0,0,0-.26-.18A6.33,6.33,0,0,1,79,19a6.93,6.93,0,0,1-.92.72"/><path class="cls-5" d="M76.17,8.3,77,1a.74.74,0,0,0-.65-.82L74.92,0a.75.75,0,0,0-.82.66l-.83,7.58a6.18,6.18,0,0,1,2.9.06"/><path class="cls-6" d="M71.57,8.86a.61.61,0,0,0-.12-.16L66.1,3.09a.75.75,0,0,0-1,0L64,4a.74.74,0,0,0,0,1l5.35,5.61.06.05a6,6,0,0,1,.78-.9,6.19,6.19,0,0,1,1.37-1"/></svg>